<svg xmlns="http://www.w3.org/2000/svg" viewBox="0 0 32 32"><rect width="32" height="32" rx="7.00" fill="#5B3FA0"/><path fill="#FFFFFF" transform="translate(4.53 25.64) scale(0.01385 -0.01385)" d="M761 75Q818 75 883.5 88.5Q949 102 1012 127Q1024 131 1036 137L1153 519L981 564L996 612H1469L1454 564L1314 516L1212 183L1226 91L1221 75Q1151 44 1073.5 22.5Q996 1 915.0 -9.5Q834 -20 754 -20Q556 -20 423.5 44.5Q291 109 224.5 227.5Q158 346 158 509Q158 659 201.5 790.5Q245 922 326.0 1029.0Q407 1136 520.5 1213.0Q634 1290 773.0 1331.0Q912 1372 1071 1372Q1126 1372 1178.5 1367.5Q1231 1363 1282 1353Q1313 1346 1343 1337L1465 1412H1498L1399 940H1340L1300 1214Q1247 1243 1197 1257Q1127 1276 1032 1276Q903 1276 794.0 1238.5Q685 1201 599.0 1133.5Q513 1066 453.0 973.5Q393 881 362.0 771.0Q331 661 331 539Q331 385 381.5 282.0Q432 179 528.5 127.0Q625 75 761 75Z"/></svg>